<svg width="64" height="64" viewBox="0 0 64 64" fill="none" xmlns="http://www.w3.org/2000/svg">
<g clip-path="url(#clip0_22_138)">
<path d="M0 27.4V53.9625C0 55.7438 1.4525 57.2438 3.3125 57.3375C9.415 57.65 22.525 58.9125 30 63.9875V30.65C22.675 25.6875 9.99875 24.35 3.73 24C1.69875 23.8875 0 25.45 0 27.4ZM60.275 24C54.0138 24.356 41.3625 25.6837 34.1375 30.6362C34.0125 30.65 34 30.6625 34 30.6875V64C41.505 58.9513 54.5875 57.655 60.6875 57.34C62.55 57.2375 64 55.7375 64 53.9625V27.4C64 25.45 62.3 23.8875 60.275 24ZM44 12C44 5.375 38.625 0 32 0C25.375 0 20 5.375 20 12C20 18.625 25.375 24 32 24C38.625 24 44 18.625 44 12Z" fill="#D97757"/>
</g>
<defs>
<clipPath id="clip0_22_138">
<rect width="64" height="64" fill="white"/>
</clipPath>
</defs>
</svg>
